<svg width="50" height="45" viewBox="0 0 50 45" fill="none" xmlns="http://www.w3.org/2000/svg">
<path d="M25 36.25C28.125 36.25 30.7812 35.1562 32.9688 32.9688C35.1562 30.7812 36.25 28.125 36.25 25C36.25 21.875 35.1562 19.2188 32.9688 17.0312C30.7812 14.8438 28.125 13.75 25 13.75C21.875 13.75 19.2188 14.8438 17.0312 17.0312C14.8438 19.2188 13.75 21.875 13.75 25C13.75 28.125 14.8438 30.7812 17.0312 32.9688C19.2188 35.1562 21.875 36.25 25 36.25ZM25 31.25C23.25 31.25 21.7708 30.6458 20.5625 29.4375C19.3542 28.2292 18.75 26.75 18.75 25C18.75 23.25 19.3542 21.7708 20.5625 20.5625C21.7708 19.3542 23.25 18.75 25 18.75C26.75 18.75 28.2292 19.3542 29.4375 20.5625C30.6458 21.7708 31.25 23.25 31.25 25C31.25 26.75 30.6458 28.2292 29.4375 29.4375C28.2292 30.6458 26.75 31.25 25 31.25ZM5 45C3.625 45 2.44792 44.5104 1.46875 43.5312C0.489583 42.5521 0 41.375 0 40V10C0 8.625 0.489583 7.44792 1.46875 6.46875C2.44792 5.48958 3.625 5 5 5H12.875L17.5 0H32.5L37.125 5H45C46.375 5 47.5521 5.48958 48.5312 6.46875C49.5104 7.44792 50 8.625 50 10V40C50 41.375 49.5104 42.5521 48.5312 43.5312C47.5521 44.5104 46.375 45 45 45H5ZM5 40H45V10H34.875L30.3125 5H19.6875L15.125 10H5V40Z" fill="white"/>
</svg>
