<?xml version="1.0" encoding="UTF-8"?><svg id="_レイヤー_1" xmlns="http://www.w3.org/2000/svg" viewBox="0 0 24 24"><defs><style>.cls-1{fill:#464646;}</style></defs><path class="cls-1" d="m17.35,4.73c.13,0,.26,0,.39.02,1.07.1,1.99.68,2.6,1.63.7,1.1.85,2.48.41,3.7-.16.45-.45.89-.87,1.36l-6.42,6.99-.04.05-.04.05c-.33.47-.83.74-1.39.74s-1.06-.27-1.39-.74l-.04-.05-.04-.05-6.42-6.99c-.42-.46-.71-.91-.87-1.36-.44-1.22-.28-2.61.41-3.7.6-.95,1.53-1.53,2.6-1.63.13-.01.26-.02.39-.02,1.52,0,2.91.81,3.71,2.17.35.59.96.94,1.64.94s1.3-.35,1.64-.94c.8-1.36,2.19-2.17,3.71-2.17m0-1c-1.93,0-3.63,1.07-4.57,2.66-.18.3-.48.45-.78.45s-.61-.15-.78-.45c-.94-1.6-2.63-2.66-4.57-2.66-.16,0-.33,0-.49.02-3.16.3-4.9,3.76-3.86,6.67.23.63.62,1.2,1.08,1.69l6.42,6.99c.54.78,1.38,1.17,2.21,1.17s1.66-.39,2.21-1.17l6.42-6.99c.46-.5.85-1.06,1.08-1.69,1.04-2.91-.7-6.37-3.86-6.67-.16-.02-.32-.02-.49-.02h0Z"/></svg>