<?xml version="1.0" encoding="UTF-8"?><svg id="_レイヤー_1" xmlns="http://www.w3.org/2000/svg" viewBox="0 0 24 24"><defs><style>.cls-1{fill:#464646;}</style></defs><path class="cls-1" d="m11.85,3.4h0c.27,0,.54.08.76.24l7.81,5.43c.36.25.57.66.57,1.1l-.05,9.05c0,.73-.6,1.33-1.33,1.33h-2.81c-.74,0-1.33-.6-1.33-1.33v-2.2c0-1.84-1.5-3.33-3.33-3.33s-3.33,1.5-3.33,3.33v2.25c0,.74-.6,1.33-1.35,1.33l-3.13-.03c-.73,0-1.32-.6-1.32-1.33v-9.2c0-.43.21-.84.56-1.09l7.52-5.31c.23-.16.49-.24.77-.24m0-1c-.47,0-.94.14-1.35.43l-7.52,5.31c-.62.44-.99,1.15-.99,1.91v9.2c0,1.28,1.03,2.32,2.31,2.33l3.13.03s.01,0,.02,0c1.29,0,2.33-1.04,2.33-2.33v-2.25c0-1.29,1.05-2.33,2.33-2.33s2.33,1.05,2.33,2.33v2.2c0,1.29,1.05,2.33,2.33,2.33h2.81c1.28,0,2.33-1.04,2.33-2.32l.05-9.05c0-.77-.37-1.49-1-1.93l-7.81-5.43c-.4-.28-.87-.42-1.33-.42h0Z"/></svg>