<?xml version="1.0" encoding="UTF-8"?><svg id="_レイヤー_1" xmlns="http://www.w3.org/2000/svg" viewBox="0 0 24 24"><defs><style>.cls-1{fill:#464646;}.cls-2{fill:none;stroke:#464646;stroke-miterlimit:10;}</style></defs><path class="cls-1" d="m17.62,3.47c1.41,0,2.56,1.15,2.56,2.56v8.29c0,1.41-1.15,2.56-2.56,2.56h-7.35c-1.41,0-2.56-1.15-2.56-2.56V6.03c0-1.41,1.15-2.56,2.56-2.56h7.35m0-1h-7.35c-1.97,0-3.56,1.59-3.56,3.56v8.29c0,1.97,1.59,3.56,3.56,3.56h7.35c1.97,0,3.56-1.59,3.56-3.56V6.03c0-1.97-1.59-3.56-3.56-3.56h0Z"/><path class="cls-2" d="m2.82,4.69v13.26c0,1.98,1.6,3.58,3.58,3.58h12.67"/><line class="cls-2" x1="10.14" y1="5.98" x2="17.45" y2="5.98"/><line class="cls-2" x1="10.14" y1="9.13" x2="17.45" y2="9.13"/><line class="cls-2" x1="10.14" y1="12.36" x2="17.45" y2="12.36"/></svg>