<?xml version="1.0" encoding="UTF-8"?><svg id="_レイヤー_1" xmlns="http://www.w3.org/2000/svg" viewBox="0 0 24 24"><defs><style>.cls-1{fill:#464646;}</style></defs><path class="cls-1" d="m18.71,4.44c.74,0,1.35.61,1.35,1.35v8.75c0,.74-.61,1.35-1.35,1.35h-9c-.83,0-1.62.3-2.24.86l-3.06,2.75c-.06.05-.11.07-.18.07-.07,0-.29-.05-.29-.28V5.79c0-.74.61-1.35,1.35-1.35h13.41m0-1H5.29c-1.3,0-2.35,1.05-2.35,2.35v13.49c0,.77.63,1.28,1.29,1.28.29,0,.59-.1.85-.33l3.06-2.75c.43-.39.99-.6,1.57-.6h9c1.3,0,2.35-1.05,2.35-2.35V5.79c0-1.3-1.05-2.35-2.35-2.35h0Z"/></svg>