<?xml version="1.0" encoding="UTF-8"?><svg id="_レイヤー_1" xmlns="http://www.w3.org/2000/svg" viewBox="0 0 24 24"><defs><style>.cls-1{fill:#464646;}.cls-2{fill:none;stroke:#464646;stroke-miterlimit:10;}</style></defs><path class="cls-1" d="m12,3c4.96,0,9,4.04,9,9s-4.04,9-9,9S3,16.96,3,12,7.04,3,12,3m0-1C6.48,2,2,6.48,2,12s4.48,10,10,10,10-4.48,10-10S17.52,2,12,2h0Z"/><path class="cls-1" d="m11.92,6.04c1.24,0,2.25,1.01,2.25,2.25s-1.01,2.25-2.25,2.25-2.25-1.01-2.25-2.25,1.01-2.25,2.25-2.25m0-1c-1.79,0-3.25,1.45-3.25,3.25s1.45,3.25,3.25,3.25,3.25-1.45,3.25-3.25-1.45-3.25-3.25-3.25h0Z"/><path class="cls-2" d="m5.32,18.85c.94-2.73,3.53-4.69,6.58-4.69s5.82,2.1,6.67,4.98"/></svg>